<svg width="15" height="15" viewBox="0 0 15 15" fill="none" xmlns="http://www.w3.org/2000/svg">
<path fill-rule="evenodd" clip-rule="evenodd" d="M9.94175 11.2032C8.73805 12.09 7.24374 12.4892 5.75819 12.3208C4.27264 12.1524 2.90557 11.4289 1.93085 10.2951C0.956138 9.16141 0.445772 7.70121 0.502 6.20709C0.558229 4.71296 1.1769 3.29525 2.23407 2.238C3.29124 1.18074 4.70882 0.562018 6.20283 0.505785C7.69683 0.449552 9.15691 0.95996 10.2906 1.93476C11.4242 2.90955 12.1477 4.27674 12.316 5.76241C12.4844 7.24809 12.0852 8.74252 11.1985 9.94632L14.4648 13.2117C14.5522 13.2931 14.6222 13.3913 14.6708 13.5004C14.7194 13.6095 14.7456 13.7272 14.7477 13.8466C14.7498 13.966 14.7278 14.0846 14.6831 14.1954C14.6384 14.3061 14.5718 14.4067 14.4874 14.4911C14.4029 14.5756 14.3023 14.6421 14.1916 14.6869C14.0809 14.7316 13.9623 14.7536 13.8429 14.7514C13.7235 14.7493 13.6058 14.7232 13.4967 14.6746C13.3876 14.626 13.2895 14.5559 13.2081 14.4686L9.94175 11.2032ZM10.576 6.42956C10.576 7.53019 10.1389 8.58574 9.36066 9.364C8.58246 10.1423 7.527 10.5795 6.42647 10.5795C5.32593 10.5795 4.27047 10.1423 3.49227 9.364C2.71407 8.58574 2.27689 7.53019 2.27689 6.42956C2.27689 5.32893 2.71407 4.27338 3.49227 3.49512C4.27047 2.71686 5.32593 2.27963 6.42647 2.27963C7.527 2.27963 8.58246 2.71686 9.36066 3.49512C10.1389 4.27338 10.576 5.32893 10.576 6.42956Z" fill="white"/>
</svg>
