<svg width="18" height="18" viewBox="0 0 18 18" fill="none" xmlns="http://www.w3.org/2000/svg">
<path d="M9 2.25H3.75C3.35218 2.25 2.97064 2.40804 2.68934 2.68934C2.40804 2.97064 2.25 3.35218 2.25 3.75V14.25C2.25 14.6478 2.40804 15.0294 2.68934 15.3107C2.97064 15.592 3.35218 15.75 3.75 15.75H14.25C14.6478 15.75 15.0294 15.592 15.3107 15.3107C15.592 15.0294 15.75 14.6478 15.75 14.25V9" stroke="white" stroke-width="2" stroke-linecap="round" stroke-linejoin="round"/>
<path d="M13.7812 1.96874C14.0796 1.67037 14.4843 1.50275 14.9062 1.50275C15.3282 1.50275 15.7329 1.67037 16.0312 1.96874C16.3296 2.26711 16.4972 2.67178 16.4972 3.09374C16.4972 3.51569 16.3296 3.92037 16.0312 4.21874L9 11.25L6 12L6.75 8.99999L13.7812 1.96874Z" stroke="white" stroke-width="2" stroke-linecap="round" stroke-linejoin="round"/>
</svg>
