<svg width="1980" height="1080" viewBox="0 0 1980 1080" fill="none" xmlns="http://www.w3.org/2000/svg">
<g clip-path="url(#clip0_35_2)">
<rect width="1980" height="1080" fill="#EFEEEC"/>
<path d="M1452.65 -214.358L548.721 256.276H180.256V770.422L530.201 843.591L2008 329.297V1047L584.507 854.946L530.201 843.591L507.633 851.444L-27.8333 936.969V-264.67C-28.0582 -266.595 -28.0529 -268.499 -27.8333 -270.373V-264.67C-21.4967 -210.449 167.568 -139.882 896.642 -253.869C1651.6 -371.902 1581.88 -276.709 1452.65 -214.358Z" fill="#332D39"/>
<path d="M357.524 703.51L210.078 757.918L208.09 273.781L357.524 351.848V703.51Z" fill="#C82C6D"/>
<path d="M211.83 278.807V757.272L178.931 770.645V255.776H547.396V838.254L515.437 853.856V278.807H211.83Z" fill="#C82C6D"/>
<ellipse cx="337.784" cy="503.18" rx="12.2195" ry="9.65845" fill="#332D39"/>
<path d="M883.281 284.227L883.306 296.263C883.306 297.093 883.159 297.87 882.866 298.594C882.573 299.319 882.17 299.949 881.658 300.486C881.145 301.032 880.535 301.463 879.827 301.78C879.119 302.09 878.341 302.244 877.495 302.244C876.632 302.244 875.847 302.09 875.139 301.78C874.431 301.471 873.825 301.044 873.32 300.499C872.816 299.961 872.421 299.331 872.136 298.606C871.851 297.874 871.705 297.093 871.697 296.263L871.721 284.227H873.87L873.918 296.263C873.927 296.792 874.008 297.3 874.163 297.789C874.325 298.277 874.557 298.708 874.858 299.083C875.151 299.457 875.518 299.758 875.957 299.986C876.405 300.214 876.917 300.328 877.495 300.328C878.073 300.328 878.582 300.218 879.021 299.998C879.46 299.77 879.831 299.465 880.132 299.083C880.425 298.708 880.649 298.277 880.803 297.789C880.958 297.3 881.043 296.792 881.06 296.263L881.096 284.227H883.281ZM898.916 298.497C898.916 298.228 898.863 297.988 898.757 297.776C898.651 297.557 898.472 297.357 898.22 297.178C897.967 296.999 897.634 296.836 897.219 296.69C896.804 296.535 896.287 296.397 895.668 296.275C894.912 296.12 894.22 295.933 893.593 295.713C892.975 295.494 892.446 295.229 892.006 294.92C891.559 294.619 891.213 294.265 890.969 293.858C890.725 293.443 890.603 292.963 890.603 292.417C890.603 291.88 890.729 291.38 890.981 290.916C891.233 290.444 891.587 290.033 892.043 289.683C892.499 289.333 893.04 289.056 893.667 288.853C894.301 288.65 894.997 288.548 895.754 288.548C896.568 288.548 897.3 288.654 897.951 288.865C898.602 289.077 899.156 289.37 899.611 289.744C900.067 290.118 900.417 290.558 900.661 291.062C900.913 291.559 901.04 292.096 901.04 292.674H898.781C898.781 292.389 898.708 292.112 898.562 291.844C898.415 291.567 898.212 291.323 897.951 291.111C897.691 290.9 897.373 290.729 896.999 290.599C896.633 290.468 896.218 290.403 895.754 290.403C895.274 290.403 894.851 290.456 894.484 290.562C894.126 290.668 893.829 290.81 893.593 290.989C893.349 291.168 893.166 291.376 893.044 291.612C892.922 291.848 892.861 292.092 892.861 292.344C892.861 292.605 892.91 292.837 893.007 293.04C893.105 293.243 893.276 293.427 893.52 293.589C893.756 293.752 894.073 293.899 894.472 294.029C894.879 294.159 895.392 294.285 896.01 294.407C896.824 294.578 897.552 294.778 898.195 295.005C898.838 295.225 899.379 295.49 899.819 295.799C900.258 296.116 900.592 296.482 900.82 296.897C901.056 297.312 901.174 297.793 901.174 298.338C901.174 298.924 901.04 299.457 900.771 299.937C900.511 300.417 900.144 300.828 899.672 301.17C899.2 301.512 898.635 301.776 897.976 301.963C897.316 302.151 896.596 302.244 895.815 302.244C894.92 302.244 894.122 302.126 893.422 301.89C892.722 301.646 892.132 301.325 891.652 300.926C891.164 300.535 890.79 300.079 890.529 299.559C890.277 299.038 890.151 298.497 890.151 297.935H892.409C892.442 298.399 892.564 298.79 892.775 299.107C892.995 299.424 893.268 299.681 893.593 299.876C893.911 300.071 894.265 300.21 894.655 300.291C895.046 300.372 895.432 300.413 895.815 300.413C896.417 300.413 896.942 300.344 897.39 300.206C897.837 300.059 898.187 299.86 898.439 299.607C898.594 299.453 898.712 299.282 898.793 299.095C898.875 298.908 898.916 298.708 898.916 298.497ZM913.988 302.244C913.061 302.244 912.206 302.085 911.425 301.768C910.652 301.451 909.988 301.007 909.435 300.438C908.882 299.868 908.45 299.192 908.141 298.411C907.832 297.63 907.677 296.779 907.677 295.86V295.347C907.677 294.281 907.848 293.329 908.19 292.491C908.532 291.644 908.987 290.928 909.557 290.342C910.119 289.764 910.757 289.321 911.474 289.012C912.198 288.702 912.938 288.548 913.695 288.548C914.647 288.548 915.478 288.715 916.186 289.048C916.902 289.374 917.496 289.826 917.968 290.403C918.44 290.989 918.79 291.677 919.018 292.466C919.254 293.256 919.372 294.11 919.372 295.03V296.043H909.936V296.128C909.993 296.771 910.119 297.337 910.314 297.825C910.517 298.313 910.794 298.745 911.144 299.119C911.502 299.518 911.933 299.831 912.438 300.059C912.943 300.287 913.5 300.401 914.11 300.401C914.916 300.401 915.632 300.238 916.259 299.913C916.885 299.587 917.406 299.156 917.821 298.619L919.201 299.693C918.761 300.36 918.102 300.954 917.223 301.475C916.352 301.988 915.274 302.244 913.988 302.244ZM913.695 290.403C913.24 290.403 912.808 290.489 912.401 290.66C911.994 290.822 911.628 291.062 911.303 291.38C910.977 291.705 910.701 292.104 910.473 292.576C910.253 293.04 910.098 293.577 910.009 294.188H917.113V294.078C917.113 293.671 917.036 293.235 916.881 292.771C916.727 292.299 916.511 291.893 916.234 291.551C915.958 291.209 915.608 290.932 915.185 290.721C914.77 290.509 914.273 290.403 913.695 290.403ZM934.823 288.548C935.238 288.548 935.669 288.576 936.117 288.633C936.572 288.69 936.914 288.768 937.142 288.865L936.837 291.075C936.397 290.977 935.978 290.908 935.58 290.867C935.189 290.818 934.778 290.794 934.347 290.794C933.793 290.794 933.293 290.863 932.845 291.001C932.398 291.132 932.007 291.327 931.673 291.587C931.372 291.815 931.108 292.096 930.88 292.43C930.66 292.755 930.477 293.121 930.331 293.528V302H928.06V288.792H930.208L930.306 290.562L930.318 290.892C930.855 290.167 931.498 289.598 932.247 289.183C933.004 288.759 933.862 288.548 934.823 288.548ZM944.183 302V288.792H946.209L946.368 290.745C946.563 290.468 946.775 290.216 947.002 289.988C947.238 289.752 947.487 289.549 947.747 289.378C948.138 289.118 948.561 288.918 949.017 288.78C949.48 288.633 949.969 288.556 950.481 288.548C951.173 288.548 951.8 288.646 952.361 288.841C952.931 289.036 953.415 289.341 953.814 289.756C954.213 290.171 954.518 290.7 954.729 291.343C954.949 291.978 955.059 292.735 955.059 293.614V302H952.801V293.663C952.801 293.077 952.736 292.58 952.605 292.173C952.475 291.766 952.284 291.437 952.032 291.185C951.771 290.932 951.454 290.749 951.08 290.635C950.713 290.521 950.29 290.464 949.81 290.464C949.395 290.464 949.008 290.525 948.65 290.647C948.292 290.761 947.963 290.92 947.662 291.124C947.417 291.303 947.19 291.51 946.978 291.746C946.775 291.982 946.596 292.243 946.441 292.527V302H944.183ZM970.876 302C970.787 301.829 970.714 301.618 970.657 301.365C970.608 301.105 970.571 300.836 970.547 300.56C970.319 300.787 970.063 301.003 969.778 301.207C969.501 301.41 969.196 301.589 968.862 301.744C968.521 301.898 968.158 302.02 967.776 302.11C967.393 302.199 966.986 302.244 966.555 302.244C965.855 302.244 965.221 302.142 964.651 301.939C964.089 301.736 963.613 301.459 963.223 301.109C962.824 300.767 962.515 300.36 962.295 299.888C962.083 299.408 961.978 298.891 961.978 298.338C961.978 297.614 962.12 296.979 962.405 296.434C962.698 295.888 963.109 295.433 963.638 295.066C964.167 294.708 964.801 294.44 965.542 294.261C966.291 294.082 967.125 293.992 968.044 293.992H970.51V292.955C970.51 292.556 970.437 292.198 970.291 291.88C970.144 291.563 969.937 291.29 969.668 291.062C969.399 290.843 969.07 290.672 968.679 290.55C968.297 290.428 967.865 290.367 967.385 290.367C966.938 290.367 966.535 290.424 966.177 290.538C965.827 290.652 965.53 290.802 965.286 290.989C965.042 291.176 964.85 291.4 964.712 291.661C964.582 291.913 964.517 292.177 964.517 292.454H962.246C962.254 291.974 962.376 291.502 962.612 291.038C962.856 290.574 963.206 290.155 963.662 289.781C964.11 289.415 964.655 289.118 965.298 288.89C965.949 288.662 966.685 288.548 967.507 288.548C968.256 288.548 968.952 288.641 969.595 288.829C970.238 289.008 970.795 289.28 971.267 289.646C971.731 290.021 972.097 290.485 972.366 291.038C972.634 291.591 972.769 292.238 972.769 292.979V299.119C972.769 299.559 972.809 300.027 972.891 300.523C972.972 301.011 973.086 301.438 973.232 301.805V302H970.876ZM966.885 300.279C967.324 300.279 967.735 300.222 968.118 300.108C968.5 299.994 968.85 299.843 969.167 299.656C969.477 299.469 969.745 299.257 969.973 299.021C970.201 298.777 970.38 298.525 970.51 298.265V295.591H968.411C967.629 295.591 966.946 295.66 966.36 295.799C965.782 295.929 965.322 296.132 964.98 296.409C964.736 296.604 964.549 296.836 964.419 297.105C964.297 297.374 964.236 297.679 964.236 298.021C964.236 298.346 964.289 298.647 964.395 298.924C964.508 299.201 964.675 299.437 964.895 299.632C965.115 299.835 965.391 299.994 965.725 300.108C966.059 300.222 966.445 300.279 966.885 300.279ZM981.25 288.792L981.311 290.037C981.579 289.573 981.929 289.211 982.36 288.951C982.8 288.69 983.329 288.556 983.947 288.548C984.297 288.548 984.611 288.589 984.887 288.67C985.172 288.743 985.42 288.853 985.632 289C985.786 289.113 985.925 289.252 986.047 289.415C986.177 289.577 986.287 289.76 986.376 289.964C986.49 289.777 986.625 289.602 986.779 289.439C986.934 289.276 987.101 289.134 987.28 289.012C987.508 288.873 987.76 288.764 988.037 288.682C988.321 288.601 988.631 288.556 988.964 288.548C989.42 288.548 989.831 288.617 990.197 288.755C990.563 288.886 990.873 289.081 991.125 289.341C991.402 289.634 991.613 290.017 991.76 290.489C991.906 290.953 991.979 291.502 991.979 292.137V302H989.831V292.112C989.831 291.836 989.799 291.591 989.733 291.38C989.668 291.168 989.575 290.993 989.453 290.855C989.322 290.725 989.16 290.627 988.964 290.562C988.777 290.497 988.557 290.464 988.305 290.464C988.037 290.464 987.805 290.501 987.609 290.574C987.414 290.647 987.251 290.745 987.121 290.867C986.991 290.997 986.889 291.148 986.816 291.319C986.743 291.482 986.694 291.665 986.669 291.868C986.669 291.909 986.669 291.95 986.669 291.99C986.669 292.023 986.669 292.063 986.669 292.112V302H984.521V292.1C984.521 291.823 984.488 291.579 984.423 291.368C984.366 291.156 984.273 290.981 984.143 290.843C984.021 290.713 983.866 290.619 983.679 290.562C983.5 290.497 983.288 290.464 983.044 290.464C982.775 290.464 982.539 290.497 982.336 290.562C982.141 290.619 981.974 290.704 981.835 290.818C981.73 290.908 981.636 291.01 981.555 291.124C981.481 291.237 981.42 291.36 981.372 291.49V302H979.223V288.792H981.25ZM1004.06 302.244C1003.13 302.244 1002.28 302.085 1001.5 301.768C1000.72 301.451 1000.06 301.007 999.508 300.438C998.955 299.868 998.524 299.192 998.214 298.411C997.905 297.63 997.75 296.779 997.75 295.86V295.347C997.75 294.281 997.921 293.329 998.263 292.491C998.605 291.644 999.061 290.928 999.63 290.342C1000.19 289.764 1000.83 289.321 1001.55 289.012C1002.27 288.702 1003.01 288.548 1003.77 288.548C1004.72 288.548 1005.55 288.715 1006.26 289.048C1006.97 289.374 1007.57 289.826 1008.04 290.403C1008.51 290.989 1008.86 291.677 1009.09 292.466C1009.33 293.256 1009.44 294.11 1009.44 295.03V296.043H1000.01V296.128C1000.07 296.771 1000.19 297.337 1000.39 297.825C1000.59 298.313 1000.87 298.745 1001.22 299.119C1001.58 299.518 1002.01 299.831 1002.51 300.059C1003.02 300.287 1003.57 300.401 1004.18 300.401C1004.99 300.401 1005.71 300.238 1006.33 299.913C1006.96 299.587 1007.48 299.156 1007.89 298.619L1009.27 299.693C1008.83 300.36 1008.18 300.954 1007.3 301.475C1006.43 301.988 1005.35 302.244 1004.06 302.244ZM1003.77 290.403C1003.31 290.403 1002.88 290.489 1002.47 290.66C1002.07 290.822 1001.7 291.062 1001.38 291.38C1001.05 291.705 1000.77 292.104 1000.55 292.576C1000.33 293.04 1000.17 293.577 1000.08 294.188H1007.19V294.078C1007.19 293.671 1007.11 293.235 1006.95 292.771C1006.8 292.299 1006.58 291.893 1006.31 291.551C1006.03 291.209 1005.68 290.932 1005.26 290.721C1004.84 290.509 1004.35 290.403 1003.77 290.403Z" fill="#EFEEEC"/>
<path d="M874.59 387.871V395H872.332V377.227H878.093C878.891 377.243 879.644 377.369 880.352 377.605C881.068 377.841 881.694 378.183 882.231 378.63C882.769 379.078 883.192 379.631 883.501 380.291C883.818 380.95 883.977 381.707 883.977 382.561C883.977 383.416 883.818 384.172 883.501 384.832C883.192 385.483 882.769 386.032 882.231 386.479C881.694 386.927 881.068 387.269 880.352 387.505C879.644 387.741 878.891 387.863 878.093 387.871H874.59ZM874.59 386.016H878.093C878.614 386.007 879.094 385.926 879.534 385.771C879.973 385.609 880.356 385.381 880.681 385.088C881.007 384.795 881.259 384.441 881.438 384.026C881.625 383.603 881.719 383.123 881.719 382.585C881.719 382.048 881.625 381.564 881.438 381.133C881.259 380.701 881.011 380.335 880.693 380.034C880.368 379.733 879.981 379.501 879.534 379.338C879.094 379.176 878.614 379.09 878.093 379.082H874.59V386.016ZM898.818 395C898.728 394.829 898.655 394.618 898.598 394.365C898.549 394.105 898.513 393.836 898.488 393.56C898.26 393.787 898.004 394.003 897.719 394.207C897.443 394.41 897.137 394.589 896.804 394.744C896.462 394.898 896.1 395.02 895.717 395.11C895.335 395.199 894.928 395.244 894.497 395.244C893.797 395.244 893.162 395.142 892.592 394.939C892.031 394.736 891.555 394.459 891.164 394.109C890.765 393.767 890.456 393.36 890.236 392.888C890.025 392.408 889.919 391.891 889.919 391.338C889.919 390.614 890.061 389.979 890.346 389.434C890.639 388.888 891.05 388.433 891.579 388.066C892.108 387.708 892.743 387.44 893.483 387.261C894.232 387.082 895.066 386.992 895.986 386.992H898.452V385.955C898.452 385.556 898.378 385.198 898.232 384.88C898.085 384.563 897.878 384.29 897.609 384.062C897.341 383.843 897.011 383.672 896.621 383.55C896.238 383.428 895.807 383.367 895.327 383.367C894.879 383.367 894.476 383.424 894.118 383.538C893.768 383.652 893.471 383.802 893.227 383.989C892.983 384.176 892.792 384.4 892.653 384.661C892.523 384.913 892.458 385.177 892.458 385.454H890.188C890.196 384.974 890.318 384.502 890.554 384.038C890.798 383.574 891.148 383.155 891.604 382.781C892.051 382.415 892.596 382.118 893.239 381.89C893.89 381.662 894.627 381.548 895.449 381.548C896.197 381.548 896.893 381.641 897.536 381.829C898.179 382.008 898.736 382.28 899.208 382.646C899.672 383.021 900.039 383.485 900.307 384.038C900.576 384.591 900.71 385.238 900.71 385.979V392.119C900.71 392.559 900.751 393.027 900.832 393.523C900.913 394.011 901.027 394.438 901.174 394.805V395H898.818ZM894.826 393.279C895.266 393.279 895.677 393.222 896.059 393.108C896.442 392.994 896.792 392.843 897.109 392.656C897.418 392.469 897.687 392.257 897.915 392.021C898.142 391.777 898.321 391.525 898.452 391.265V388.591H896.352C895.571 388.591 894.887 388.66 894.301 388.799C893.723 388.929 893.264 389.132 892.922 389.409C892.678 389.604 892.491 389.836 892.36 390.105C892.238 390.374 892.177 390.679 892.177 391.021C892.177 391.346 892.23 391.647 892.336 391.924C892.45 392.201 892.617 392.437 892.836 392.632C893.056 392.835 893.333 392.994 893.667 393.108C894 393.222 894.387 393.279 894.826 393.279ZM916.93 391.497C916.93 391.228 916.877 390.988 916.771 390.776C916.666 390.557 916.487 390.357 916.234 390.178C915.982 389.999 915.648 389.836 915.233 389.69C914.818 389.535 914.302 389.397 913.683 389.275C912.926 389.12 912.235 388.933 911.608 388.713C910.989 388.494 910.46 388.229 910.021 387.92C909.573 387.619 909.228 387.265 908.983 386.858C908.739 386.443 908.617 385.963 908.617 385.417C908.617 384.88 908.743 384.38 908.996 383.916C909.248 383.444 909.602 383.033 910.058 382.683C910.513 382.333 911.055 382.056 911.681 381.853C912.316 381.65 913.012 381.548 913.769 381.548C914.582 381.548 915.315 381.654 915.966 381.865C916.617 382.077 917.17 382.37 917.626 382.744C918.082 383.118 918.432 383.558 918.676 384.062C918.928 384.559 919.054 385.096 919.054 385.674H916.796C916.796 385.389 916.723 385.112 916.576 384.844C916.43 384.567 916.226 384.323 915.966 384.111C915.705 383.9 915.388 383.729 915.014 383.599C914.647 383.468 914.232 383.403 913.769 383.403C913.288 383.403 912.865 383.456 912.499 383.562C912.141 383.668 911.844 383.81 911.608 383.989C911.364 384.168 911.181 384.376 911.059 384.612C910.937 384.848 910.875 385.092 910.875 385.344C910.875 385.605 910.924 385.837 911.022 386.04C911.12 386.243 911.291 386.427 911.535 386.589C911.771 386.752 912.088 386.899 912.487 387.029C912.894 387.159 913.406 387.285 914.025 387.407C914.839 387.578 915.567 387.778 916.21 388.005C916.853 388.225 917.394 388.49 917.833 388.799C918.273 389.116 918.607 389.482 918.834 389.897C919.07 390.312 919.188 390.793 919.188 391.338C919.188 391.924 919.054 392.457 918.786 392.937C918.525 393.417 918.159 393.828 917.687 394.17C917.215 394.512 916.649 394.776 915.99 394.963C915.331 395.151 914.611 395.244 913.83 395.244C912.934 395.244 912.137 395.126 911.437 394.89C910.737 394.646 910.147 394.325 909.667 393.926C909.179 393.535 908.804 393.079 908.544 392.559C908.292 392.038 908.166 391.497 908.166 390.935H910.424C910.456 391.399 910.578 391.79 910.79 392.107C911.01 392.424 911.282 392.681 911.608 392.876C911.925 393.071 912.279 393.21 912.67 393.291C913.061 393.372 913.447 393.413 913.83 393.413C914.432 393.413 914.957 393.344 915.404 393.206C915.852 393.059 916.202 392.86 916.454 392.607C916.609 392.453 916.727 392.282 916.808 392.095C916.889 391.908 916.93 391.708 916.93 391.497ZM934.945 391.497C934.945 391.228 934.892 390.988 934.786 390.776C934.68 390.557 934.501 390.357 934.249 390.178C933.997 389.999 933.663 389.836 933.248 389.69C932.833 389.535 932.316 389.397 931.698 389.275C930.941 389.12 930.249 388.933 929.623 388.713C929.004 388.494 928.475 388.229 928.036 387.92C927.588 387.619 927.242 387.265 926.998 386.858C926.754 386.443 926.632 385.963 926.632 385.417C926.632 384.88 926.758 384.38 927.01 383.916C927.263 383.444 927.617 383.033 928.072 382.683C928.528 382.333 929.069 382.056 929.696 381.853C930.331 381.65 931.026 381.548 931.783 381.548C932.597 381.548 933.329 381.654 933.98 381.865C934.632 382.077 935.185 382.37 935.641 382.744C936.096 383.118 936.446 383.558 936.69 384.062C936.943 384.559 937.069 385.096 937.069 385.674H934.811C934.811 385.389 934.737 385.112 934.591 384.844C934.444 384.567 934.241 384.323 933.98 384.111C933.72 383.9 933.403 383.729 933.028 383.599C932.662 383.468 932.247 383.403 931.783 383.403C931.303 383.403 930.88 383.456 930.514 383.562C930.156 383.668 929.859 383.81 929.623 383.989C929.378 384.168 929.195 384.376 929.073 384.612C928.951 384.848 928.89 385.092 928.89 385.344C928.89 385.605 928.939 385.837 929.037 386.04C929.134 386.243 929.305 386.427 929.549 386.589C929.785 386.752 930.103 386.899 930.501 387.029C930.908 387.159 931.421 387.285 932.04 387.407C932.853 387.578 933.582 387.778 934.225 388.005C934.868 388.225 935.409 388.49 935.848 388.799C936.288 389.116 936.621 389.482 936.849 389.897C937.085 390.312 937.203 390.793 937.203 391.338C937.203 391.924 937.069 392.457 936.8 392.937C936.54 393.417 936.174 393.828 935.702 394.17C935.23 394.512 934.664 394.776 934.005 394.963C933.346 395.151 932.625 395.244 931.844 395.244C930.949 395.244 930.152 395.126 929.452 394.89C928.752 394.646 928.162 394.325 927.682 393.926C927.193 393.535 926.819 393.079 926.559 392.559C926.306 392.038 926.18 391.497 926.18 390.935H928.438C928.471 391.399 928.593 391.79 928.805 392.107C929.024 392.424 929.297 392.681 929.623 392.876C929.94 393.071 930.294 393.21 930.685 393.291C931.075 393.372 931.462 393.413 931.844 393.413C932.446 393.413 932.971 393.344 933.419 393.206C933.867 393.059 934.216 392.86 934.469 392.607C934.623 392.453 934.741 392.282 934.823 392.095C934.904 391.908 934.945 391.708 934.945 391.497ZM945.452 395L942.645 381.792H944.646L946.185 390.215L946.453 392.107L946.783 390.215L948.895 381.792H950.347L952.447 390.215L952.801 392.29L953.13 390.215L954.595 381.792H956.597L953.79 395H952.007L949.944 386.907L949.603 384.856L949.273 386.907L947.234 395H945.452ZM961.562 388.274C961.562 387.322 961.701 386.439 961.978 385.625C962.254 384.803 962.653 384.091 963.174 383.489C963.687 382.887 964.313 382.415 965.054 382.073C965.794 381.723 966.628 381.548 967.556 381.548C968.492 381.548 969.33 381.723 970.071 382.073C970.819 382.415 971.454 382.887 971.975 383.489C972.488 384.091 972.882 384.803 973.159 385.625C973.436 386.439 973.574 387.322 973.574 388.274V388.542C973.574 389.495 973.436 390.378 973.159 391.191C972.882 392.005 972.488 392.713 971.975 393.315C971.454 393.918 970.824 394.39 970.083 394.731C969.342 395.073 968.508 395.244 967.581 395.244C966.645 395.244 965.802 395.073 965.054 394.731C964.313 394.39 963.687 393.918 963.174 393.315C962.653 392.713 962.254 392.005 961.978 391.191C961.701 390.378 961.562 389.495 961.562 388.542V388.274ZM963.821 388.542C963.821 389.194 963.898 389.816 964.053 390.41C964.207 390.996 964.443 391.513 964.761 391.96C965.07 392.408 965.461 392.762 965.933 393.022C966.405 393.283 966.954 393.413 967.581 393.413C968.199 393.413 968.74 393.283 969.204 393.022C969.676 392.762 970.071 392.408 970.388 391.96C970.697 391.513 970.929 390.996 971.084 390.41C971.239 389.816 971.316 389.194 971.316 388.542V388.274C971.316 387.631 971.235 387.017 971.072 386.431C970.917 385.837 970.685 385.316 970.376 384.868C970.059 384.421 969.664 384.067 969.192 383.806C968.728 383.538 968.183 383.403 967.556 383.403C966.93 383.403 966.384 383.538 965.92 383.806C965.457 384.067 965.07 384.421 964.761 384.868C964.443 385.316 964.207 385.837 964.053 386.431C963.898 387.017 963.821 387.631 963.821 388.274V388.542ZM988.867 381.548C989.282 381.548 989.713 381.576 990.161 381.633C990.616 381.69 990.958 381.768 991.186 381.865L990.881 384.075C990.441 383.977 990.022 383.908 989.624 383.867C989.233 383.818 988.822 383.794 988.391 383.794C987.837 383.794 987.337 383.863 986.889 384.001C986.442 384.132 986.051 384.327 985.717 384.587C985.416 384.815 985.152 385.096 984.924 385.43C984.704 385.755 984.521 386.121 984.375 386.528V395H982.104V381.792H984.252L984.35 383.562L984.362 383.892C984.899 383.167 985.542 382.598 986.291 382.183C987.048 381.759 987.906 381.548 988.867 381.548ZM997.799 388.286C997.799 387.301 997.921 386.398 998.166 385.576C998.418 384.746 998.776 384.034 999.24 383.44C999.695 382.846 1000.25 382.382 1000.9 382.048C1001.55 381.715 1002.28 381.548 1003.08 381.548C1003.87 381.548 1004.56 381.682 1005.15 381.951C1005.74 382.211 1006.25 382.594 1006.69 383.098V376.25H1008.94V395H1006.87L1006.77 393.608C1006.33 394.146 1005.81 394.552 1005.2 394.829C1004.59 395.106 1003.87 395.244 1003.06 395.244C1002.26 395.244 1001.54 395.073 1000.89 394.731C1000.24 394.39 999.695 393.918 999.24 393.315C998.784 392.713 998.43 392.005 998.178 391.191C997.925 390.369 997.799 389.486 997.799 388.542V388.286ZM1000.06 388.542C1000.06 389.185 1000.13 389.796 1000.27 390.374C1000.4 390.951 1000.62 391.46 1000.91 391.899C1001.2 392.339 1001.56 392.689 1002.01 392.949C1002.46 393.201 1003 393.328 1003.62 393.328C1004.38 393.328 1005.01 393.157 1005.5 392.815C1006 392.473 1006.39 392.013 1006.69 391.436V385.308C1006.39 384.771 1006 384.331 1005.5 383.989C1005.01 383.639 1004.39 383.464 1003.65 383.464C1003.01 383.464 1002.47 383.595 1002.01 383.855C1001.56 384.115 1001.2 384.465 1000.91 384.905C1000.62 385.352 1000.4 385.869 1000.27 386.455C1000.13 387.033 1000.06 387.643 1000.06 388.286V388.542Z" fill="#EFEEEC"/>
<rect y="840" width="1980" height="413" fill="#342C39"/>
</g>
<defs>
<clipPath id="clip0_35_2">
<rect width="1980" height="1080" fill="white"/>
</clipPath>
</defs>
</svg>
